<svg xmlns="http://www.w3.org/2000/svg" xmlns:xlink="http://www.w3.org/1999/xlink" width="236.04" height="71.68" viewBox="0 0 236.04 71.68">
  <defs>
    <linearGradient id="linear-gradient" x1="0.024" y1="0.104" x2="1" y2="0.123" gradientUnits="objectBoundingBox">
      <stop offset="0" stop-color="#2b9cb1"/>
      <stop offset="1" stop-color="#c96b6b"/>
    </linearGradient>
  </defs>
  <path id="パス_1" data-name="パス 1" d="M23.64,4H17.4V-13.44a31.079,31.079,0,0,1-4.7,7.78A39.118,39.118,0,0,1,7.54-.5,29.214,29.214,0,0,1,3.5,2.34q-1.58.86-1.62.86V-4q.04,0,1.24-.76A26.473,26.473,0,0,0,6.24-7.22a27.773,27.773,0,0,0,3.98-4.56,35.362,35.362,0,0,0,3.82-7.1H1.88V-25H17.4v-5h6.24v5H28.2v6.12H23.64Zm5.72-25.36v-6.28H53.12v6.28ZM28.6-4.64H53.96V1.64H28.6ZM74.16-29.08h7.2a35.746,35.746,0,0,1-4.1,6.56q-2.42,3.08-4.42,5.36V3.88H66.52V-12.28A36.337,36.337,0,0,1,60.6-8.32a35.8,35.8,0,0,1-4.52,2.06q-1.68.58-1.72.58v-6.44q.04,0,2.04-.82a37.8,37.8,0,0,0,5.1-2.72,37.032,37.032,0,0,0,6.46-5.2A38.2,38.2,0,0,0,74.16-29.08ZM91.84-11.44H81.24v-6.24H91.96V-22.2h-9.6v-6.24h23.96v6.24h-8v4.52h9.16v6.24h-9.2a13.414,13.414,0,0,1-2.24,6.6A18.84,18.84,0,0,1,91.9-.48a19.779,19.779,0,0,1-4.48,2.56A27.16,27.16,0,0,1,83.74,3.3q-1.46.34-1.5.34V-3a7.873,7.873,0,0,0,1.44-.28,15.473,15.473,0,0,0,3.16-1.2,9.705,9.705,0,0,0,3.2-2.56A8.7,8.7,0,0,0,91.84-11.44Zm20.4-2.72-4.2.2v-5.28l3.56-.16-.6-5.2h5.24l.6,5.04L131.08-20v5.28a14.786,14.786,0,0,1-2.56,5.7,19.384,19.384,0,0,1-3.58,3.74,28.463,28.463,0,0,1-4.38,2.68V-8.4a10.286,10.286,0,0,0,2.22-1.56,13.129,13.129,0,0,0,1.7-1.94,9.689,9.689,0,0,0,1.28-2.66l-8.28.28,2.2,18.16h-5.2Zm40.28-7.16h6.36A36.355,36.355,0,0,1,153.52-9.4a29.98,29.98,0,0,1-6.98,7.1,26.557,26.557,0,0,1-6.86,3.54,25.474,25.474,0,0,1-5.3,1.22,19.979,19.979,0,0,1-2.1.14V-3.92a12.576,12.576,0,0,0,1.64-.06,20.023,20.023,0,0,0,4.1-.82,16.881,16.881,0,0,0,5.26-2.76,24.775,24.775,0,0,0,5.1-5.18A30.445,30.445,0,0,0,152.52-21.32Zm-20.24-.48v-6.24h12.48v6.24Zm51.84,2.76v6.28h-16.8V3.68H161V-29.84h6.32v10.8Zm-12.92-4.4v-6.32h3.04v6.32Zm4.76,0v-6.32H179v6.32Zm28.64-5.64h7.2a35.747,35.747,0,0,1-4.1,6.56q-2.42,3.08-4.42,5.36V3.88h-6.32V-12.28a36.337,36.337,0,0,1-5.92,3.96,35.8,35.8,0,0,1-4.52,2.06q-1.68.58-1.72.58v-6.44q.04,0,2.04-.82a37.8,37.8,0,0,0,5.1-2.72,37.031,37.031,0,0,0,6.46-5.2A38.2,38.2,0,0,0,204.6-29.08Zm18.52,17.04H211.84v-6.12h26.08v6.12H229.6a15.889,15.889,0,0,1-2.04,7.12A13.616,13.616,0,0,1,223.3-.44a21.113,21.113,0,0,1-4.88,2.4,24.167,24.167,0,0,1-3.88.98,11.037,11.037,0,0,1-1.58.18V-3.32a10.2,10.2,0,0,0,1.52-.18,15.734,15.734,0,0,0,3.5-1.04,8.384,8.384,0,0,0,3.44-2.6A9,9,0,0,0,223.12-12.04ZM212.96-22.36v-6.12h23.88v6.12ZM26.68,18.96v6.28H9.88V41.68H3.56V8.16H9.88v10.8Zm-12.92-4.4V8.24H16.8v6.32Zm4.76,0V8.24h3.04v6.32Zm11.6,26.72v-5.6a14.22,14.22,0,0,0,6.94-3.04,15.146,15.146,0,0,0,4.12-5.4,35.483,35.483,0,0,0,2.1-6,43.21,43.21,0,0,0,.96-4.86,16.994,16.994,0,0,0,.2-2.02H49.8a55.216,55.216,0,0,1-.84,6.38,39.338,39.338,0,0,1-1.78,6.08,25.59,25.59,0,0,1-3.48,6.3,22.2,22.2,0,0,1-5.56,5.24A19.6,19.6,0,0,1,30.12,41.28Zm1.56-26.96,2.4,13.72h-4.2L27.56,14.32Zm6.68,0,2.48,13.72H36.56L34.24,14.32Zm36.92,4.64v6.28H58.48V41.68H52.16V8.16h6.32v10.8Zm1.04,20.68V33.36H94.4V16.64H76.32V10.36h24.6V39.64ZM110.92,9.2h6.44q-1.36,6.72-2.78,11.98t-2.54,8.58q-1.12,3.32-1.48,4.16h12.72a58.83,58.83,0,0,0-1.64-6.14q-1.08-3.38-2.64-7.14h6.56a94.879,94.879,0,0,1,3.38,9.76,81.585,81.585,0,0,1,2.18,9.8H103.28V34.24q1.64-4.12,2.88-7.64t2.52-8Q109.96,14.12,110.92,9.2ZM137.64,28a6.472,6.472,0,0,1,3.36.9,6.739,6.739,0,0,1,2.42,2.44,6.648,6.648,0,0,1,0,6.68A6.739,6.739,0,0,1,141,40.46a6.685,6.685,0,0,1-6.7,0,6.691,6.691,0,0,1-2.44-2.44,6.647,6.647,0,0,1,0-6.68,6.691,6.691,0,0,1,2.44-2.44A6.5,6.5,0,0,1,137.64,28Zm0,10a3.175,3.175,0,0,0,2.36-.98,3.31,3.31,0,0,0-2.36-5.66,3.32,3.32,0,0,0,0,6.64Z" transform="translate(-1.88 30)" fill="url(#linear-gradient)"/>
</svg>
